<svg width="593" height="112" viewBox="0 0 593 112" fill="none" xmlns="http://www.w3.org/2000/svg">
<path d="M42.1896 28.6516C36.0215 28.9016 5.53064 29.9266 1.52304 27.7626C-0.58516 25.0756 -0.42346 4.28061 1.50674 1.47061C4.19034 -0.471391 14.3111 0.0706172 17.9238 0.0666172L38.8867 0.04762L57.761 0.0546085C61.037 0.0616085 65.941 -0.0683789 69.108 0.295621C71.199 2.39562 74.116 7.08661 75.863 9.72361L85.662 24.5276L125.765 84.4226L137.102 101.534C138.757 104.057 141.996 109.283 143.765 111.343L114.119 111.363C109.551 111.369 102.799 111.184 98.422 111.46C85.512 92.4176 72.699 73.3096 59.983 54.1376L48.7653 37.3786C47.4262 35.3666 45.3487 31.9016 43.9916 30.0756C43.3103 29.2366 43.1905 29.0146 42.1896 28.6516Z" fill="#7C04DA"/>
<path d="M42.1898 28.6516C43.1907 29.0146 43.3105 29.2366 43.9918 30.0756C43.8292 31.0196 44.2193 34.9106 44.2653 36.1796C45.1741 61.2846 45.1345 86.4866 45.9381 111.581C42.6682 111.231 31.7346 111.437 27.7491 111.5C20.7095 111.612 9.12849 110.916 2.72889 111.706C2.60139 102.396 2.42669 93.0856 2.20499 83.7776C2.07219 78.2236 1.69219 70.5886 2.04089 65.1786L26.843 42.4726C31.7641 37.9666 37.0908 32.8886 42.1898 28.6516Z" fill="#7C04DA"/>
<path d="M185.978 27.8666C188.391 27.7546 190.993 27.7816 193.424 27.7686C192.941 43.6486 193.717 59.8346 193.387 75.7396C193.357 77.1876 193.513 78.6586 192.386 79.6166C190.073 78.6296 165.524 51.2786 161.909 47.2566C162.21 49.9356 162.747 78.2896 161.994 79.3476C161.714 79.7416 161.083 79.7236 160.621 79.8136C158.817 79.8086 155.494 79.9626 153.987 79.2796C153.019 77.0366 153.426 32.6026 153.542 26.9576C157.559 30.2086 165.088 39.0126 168.828 43.2586C174.079 49.2196 180.029 55.5386 185.107 61.5576C184.062 53.7576 184.701 38.2706 184.816 29.9526C184.833 28.7576 185.211 28.4136 185.978 27.8666Z" fill="#FEFEFE"/>
<path d="M445.812 46.3276C449.469 46.1266 451.838 46.3036 455.26 47.8456C456.397 48.3576 458.787 50.0266 459.726 50.0696C459.973 49.1216 460.189 48.3576 460.499 47.4216C461.963 46.4066 466.234 46.7526 468.115 46.7886C468.373 55.8656 468.033 65.0266 468.297 74.1156C468.352 76.0226 468.323 77.8436 468.11 79.7416C466.346 79.8726 462.534 79.9596 460.892 79.6036C459.979 78.6946 460.057 77.1846 459.988 75.8636L459.535 75.7716C457.302 77.8576 455.624 79.0516 452.585 79.8826C448.468 80.9826 444.082 80.3686 440.427 78.1796C432.008 73.1316 430.046 61.2446 434.985 53.0696C437.628 48.6966 441.133 47.3986 445.812 46.3276ZM452.609 73.6206C463.39 69.7566 461.313 51.6286 448.05 52.8146C437.679 55.6426 437.991 75.8786 452.609 73.6206Z" fill="#FEFEFE"/>
<path d="M289.738 46.3366C293.383 46.0806 296.896 46.1826 299.94 48.3926C300.856 49.0586 302.819 50.5736 303.894 50.3976C303.889 49.2956 303.731 48.0436 304.264 47.1586C305.958 46.4956 309.849 46.8086 311.807 46.9046C312.024 56.7626 312.25 69.9936 311.928 79.7136C309.751 79.8016 307.411 79.9816 305.255 79.8856C303.509 78.6536 304.36 76.8016 303.663 75.0586C296.485 85.1156 278.437 79.9466 276.666 67.6346C275.05 56.3966 278.26 48.8346 289.738 46.3366ZM296.114 73.6566C306.6 70.3766 305.862 51.6886 291.427 52.8286C281.057 56.7526 282.315 75.7796 296.114 73.6566Z" fill="#FEFEFE"/>
<path d="M215.257 46.2036C224.715 44.5866 233.682 50.9756 235.245 60.4436C236.808 69.9116 230.37 78.8446 220.895 80.3536C211.494 81.8516 202.65 75.4746 201.099 66.0826C199.549 56.6896 205.874 47.8076 215.257 46.2036ZM220.608 73.7436C228.985 70.8026 228.974 57.0516 221.281 53.3406C219.69 52.5736 217.727 52.7076 215.998 52.8276C213.457 53.8556 211.26 55.5376 210.369 58.1796C207.467 66.7886 211.045 74.3976 220.608 73.7436Z" fill="#FEFEFE"/>
<path d="M508.895 46.3486C509.775 46.2926 510.657 46.2566 511.539 46.2396C524.599 46.0566 526.515 55.2906 526.412 66.0136C519.812 66.4626 509.631 66.1106 502.696 66.2036L503.489 68.2346C506.544 76.0136 515.381 74.5546 521.636 71.9026C522.703 73.3846 523.673 75.9666 524.412 77.7146C517.272 80.6026 508.134 82.0356 501.427 77.6556C490.804 70.7186 492.227 51.6186 504.591 47.2986C505.846 46.8606 507.586 46.5916 508.895 46.3486ZM502.672 60.5236C506.246 60.4586 510.138 60.3246 513.687 60.4056L518.71 60.4456C517.934 56.6666 518.071 56.1686 515.437 53.3516C512.908 52.8056 511.52 52.6026 508.859 52.8696C504.427 54.3186 504.164 56.3906 502.672 60.5236Z" fill="#FEFEFE"/>
<path d="M358.832 46.3496C373.054 45.6156 377.739 52.6836 376.502 66.1186C368.75 66.2556 360.888 66.1076 353.059 66.2376C354.084 69.4176 355.237 72.2046 358.723 73.3556C362.462 74.5896 367.945 73.7516 371.492 72.0786C373.143 72.7226 374.057 76.0606 374.656 77.7076C373.192 78.3816 371.674 78.9316 370.119 79.3506C364.682 80.8136 357.24 80.9526 352.369 78.0606C341.359 71.5246 342.139 52.3656 354.373 47.5526C355.695 47.0326 357.443 46.6766 358.832 46.3496ZM352.952 60.5936C355.988 60.2466 360.296 60.3616 363.43 60.4376C365.219 60.4586 367.229 60.5296 368.999 60.4766C367.569 53.9016 366.321 52.3496 359.189 52.8256C354.799 54.4886 354.318 56.2536 352.952 60.5936Z" fill="#FEFEFE"/>
<path d="M402.607 27.8696C411.844 27.4446 424.028 27.8196 433.593 27.7716C433.74 29.6546 433.671 32.8436 433.691 34.8266L420.041 34.8026C420.54 38.1546 420.319 44.9396 420.303 48.5656C420.267 55.8496 420.268 63.1336 420.308 70.4176C420.343 73.6136 420.345 76.5376 420.22 79.7286L411.785 79.8086C411.38 75.5106 411.588 68.3886 411.588 63.8176L411.628 34.6636C408.282 34.9996 402.214 34.8346 398.631 34.8276C398.552 32.7856 398.131 30.0986 399.236 28.5146C400.107 27.7326 401.396 27.8876 402.607 27.8696Z" fill="#FEFEFE"/>
<path d="M550.171 46.3946C565.155 45.3006 565.094 55.5546 565.22 67.1236C565.267 71.3896 565.319 75.4266 564.971 79.7036C562.461 79.8316 559.584 79.7416 557.041 79.7166C556.274 71.9736 560.321 44.3896 545.585 54.8456C540.208 59.4136 542.353 72.7156 541.819 79.7026C539.463 79.8556 536.244 79.7606 533.823 79.7556C533.604 76.1696 533.028 48.8706 534.233 47.3766C535.891 46.9056 540.436 46.3056 541.689 47.5596C542.125 48.7636 541.817 50.5156 541.686 51.8466C544.795 48.3346 545.623 47.5716 550.171 46.3946Z" fill="#FEFEFE"/>
<path d="M584.117 32.0366L584.726 32.2396C585.762 33.8426 585.351 44.6056 585.123 46.9386C587.65 46.8896 590.177 46.8546 592.705 46.8316C592.914 49.5356 592.924 50.5186 592.644 53.2126C590.246 53.6036 587.615 53.6066 585.196 53.5006C585.701 60.1536 585.39 72.9616 585.185 79.6826C584.092 79.7446 582.856 79.7486 581.749 79.7766L577.369 79.6876C577.209 78.2816 577.109 76.8186 577.117 75.4026C577.157 68.1226 576.705 60.6886 577.015 53.4256C574.796 53.4536 573.124 53.9676 571.649 52.2246C571.23 50.8316 571.695 48.5556 571.896 47.0326L577.021 46.7996C576.949 45.6326 577.001 44.3796 577.005 43.2076C577.039 35.1246 575.192 33.7276 584.117 32.0366Z" fill="#FEFEFE"/>
<path d="M256.004 67.0376C257.708 62.1326 261.904 52.0396 264.934 47.5956C265.798 46.3296 271.954 46.8716 273.758 46.9566C272.752 49.3976 270.734 53.1046 269.491 55.5586C267.546 59.2586 258.409 77.3266 256.479 79.4736C256.074 79.5556 255.809 79.6956 255.42 79.5066C253.809 78.7256 239.317 50.3536 238.209 46.8486C243.114 47.1906 246.332 45.2196 248.8 50.6646C251.27 56.1096 253.909 61.4146 256.004 67.0376Z" fill="#FEFEFE"/>
<path d="M478.983 27.8726C481.481 27.7506 483.985 27.7886 486.487 27.7986C486.399 33.7306 486.801 78.4896 485.974 79.7356C483.696 79.8576 480.676 79.7606 478.34 79.7486C478.038 73.6806 477.444 30.1676 478.983 27.8726Z" fill="#FEFEFE"/>
<path d="M341.113 46.1646L341.468 46.1456L341.809 46.7406C341.765 47.6266 341.462 54.0076 340.591 53.9306C326.029 52.6516 329.663 65.6836 329.529 79.7256C326.846 79.7376 323.551 80.4946 321.52 79.2046C320.823 77.9386 321.082 77.7676 321.098 76.1086C320.832 66.3586 320.929 56.6016 321.389 46.8576C324.122 46.8646 326.855 46.8376 329.588 46.7766L329.265 51.7946C332.869 46.7026 335.186 46.2196 341.113 46.1646Z" fill="#FEFEFE"/>
</svg>
